# xmcd CD database file
#
# Track frame offsets:
#	150
#	21302
#	41689
#	68464
#	84105
#	98857
#	124648
#	141590
#	168568
#	189621
#	222476
#	242844
#	265069
#	285310
#	313231
#	324880
#	340092
#
# Disc length: 4718 seconds
#
# Revision: 0
# Processed by: cddbd v1.5.2PL0 Copyright (c) Steve Scherf et al.
# Submitted via: CDex 1.84
#
DISCID=f4126c11
DTITLE=Thelonious Monk - The Complete Albums Collection (1955-1958) [CD4]
DYEAR=2015
DGENRE=Jazz
TTITLE0=It Don't Mean A Thing (If It Ain't Got That Swing)
TTITLE1=Sophisticated Lady
TTITLE2=I Got It Bad And That Ain't Good
TTITLE3=Black And Tan Fantasy
TTITLE4=Mood Indigo
TTITLE5=I Let A Song Go Out Of My Heart
TTITLE6=Solitude
TTITLE7=Caravan
TTITLE8=In Orbit
TTITLE9=One Foot in the Gutter
TTITLE10=Trust in Me
TTITLE11=Let's Cool One
TTITLE12=Pea-Eye
TTITLE13=Argentia
TTITLE14=Moonlight Fiesta
TTITLE15=Buck's Business" 
TTITLE16=Very Near Blue
EXTD=YEAR: 2015
EXTT0=
EXTT1=
EXTT2=
EXTT3=
EXTT4=
EXTT5=
EXTT6=
EXTT7=
EXTT8=
EXTT9=
EXTT10=
EXTT11=
EXTT12=
EXTT13=
EXTT14=
EXTT15=
EXTT16=
PLAYORDER=
